# xmcd
#
# Track frame offsets: 
#        187
#        19812
#        34062
#        48687
#        64812
#        75387
#        90312
#        108462
#        125787
#        141162
#        155037
#        170937
#
# Disc length: 2493 seconds
#
# Revision: 5
# Processed by: cddbd v1.5.2PL0 Copyright (c) Steve Scherf et al.
# Submitted via: ExactAudioCopy v0.99pb4
#
DISCID=a709bb0c
DTITLE=Zillertaler Schürzenjäger - Glory Hallelujah
DYEAR=1994
DGENRE=
TTITLE0=Glory-Hallelujah
TTITLE1=Setz di nieder
TTITLE2=Woasch eh...
TTITLE3=Hoamkemmen
TTITLE4=I relax
TTITLE5=Wenn die Zeit vorüber ist
TTITLE6=Dann wirf den ersten Stein
TTITLE7=Zeitensprung
TTITLE8=Passt scho
TTITLE9=Wenn i net i wär
TTITLE10=Am Anfang war das Feuer
TTITLE11=Roter Sommermond
EXTD=
EXTT0=
EXTT1=
EXTT2=
EXTT3=
EXTT4=
EXTT5=
EXTT6=
EXTT7=
EXTT8=
EXTT9=
EXTT10=
EXTT11=
PLAYORDER=
